<svg width="47" height="47" viewBox="0 0 47 47" fill="none" xmlns="http://www.w3.org/2000/svg">
<path d="M19.9174 13.1102C19.4506 12.6438 19.0356 12.0738 18.8281 11.4001C18.9319 12.0738 19.3468 12.6956 19.9174 13.1102Z" fill="#E71C23"/>
<path d="M23.2921 12.4882C23.4996 12.4882 23.6552 12.4882 23.8627 12.4364C24.1739 12.0219 24.3295 11.5555 24.3295 11.0373C24.3295 9.63817 23.0846 8.49817 21.5804 8.49817C21.3729 8.49817 21.2173 8.49816 21.0098 8.54998C20.6986 8.96453 20.543 9.43091 20.543 9.9491C20.543 11.3482 21.736 12.4882 23.2921 12.4882Z" fill="#E71C23"/>
<path d="M39.941 15.0787C39.941 15.0787 39.8892 15.1306 39.941 15.0787L42.6383 13.7833L40.4597 12.6951C40.4597 13.576 40.3041 14.3533 39.941 15.0787Z" fill="#5EB7CC"/>
<path d="M38.4362 12.3845C38.3844 12.1254 38.3325 11.8663 38.2287 11.5553L38.125 11.5035C38.2806 11.8145 38.3844 12.1254 38.4362 12.3845Z" fill="#5EB7CC"/>
<path d="M26.0385 9.63861C25.9348 8.91315 25.5717 8.34314 24.9492 7.92859C25.4161 8.39496 25.7792 9.01678 26.0385 9.63861Z" fill="#E71C23"/>
<path d="M25.0547 14.6138L25.1066 14.6656C25.1066 14.6138 25.1066 14.6138 25.0547 14.6138Z" fill="#E71C23"/>
<path d="M35.6858 11.0367C34.5965 9.37852 34.8559 7.51304 35.0633 5.95846C35.219 4.92208 35.3227 3.98934 34.9596 3.57479C34.7521 3.31569 34.1297 3.00476 32.4698 3.00476C30.5506 3.00476 28.9944 3.41931 27.7495 4.04114C27.2308 4.4557 26.764 4.87026 26.4009 5.28482C26.1415 5.54391 25.934 5.85482 25.7266 6.11391C27.0752 6.8912 27.957 8.34215 27.957 9.94854C27.957 11.244 27.3864 12.4358 26.4528 13.265C27.5939 14.2495 29.2019 15.1823 31.2768 15.5968C32.2104 15.8041 33.0922 15.9077 33.9222 15.9077C34.804 15.9077 35.582 15.8041 36.2045 15.5968C36.3082 15.4932 36.3601 15.3896 36.412 15.2859C37.0344 14.1977 36.7751 12.6949 35.6858 11.0367Z" fill="#E71C23"/>
<path d="M19.8664 5.12976C20.1776 5.4925 20.4369 5.85522 20.6963 6.21795C20.7482 6.21795 20.7482 6.16615 20.8 6.16615C20.5926 5.90705 20.3851 5.59612 20.1257 5.33702C19.9182 5.07793 19.6589 4.81885 19.3995 4.61157H19.3477C19.5551 4.76703 19.7108 4.97431 19.8664 5.12976Z" fill="#5EB7CC"/>
<path d="M23.8592 4.45593L22.5105 3.78228C22.3549 3.67864 22.0437 3.62683 21.7843 3.62683C21.5769 3.62683 21.4212 3.62682 21.2656 3.67864C21.3694 3.78228 21.4731 3.93774 21.5769 4.04138C21.9918 4.50775 22.3549 5.02594 22.6661 5.49231C22.718 5.49231 22.8218 5.49231 22.8736 5.49231C22.9774 5.38867 23.0811 5.23324 23.1849 5.1296C23.3923 4.92232 23.6517 4.6632 23.8592 4.45593Z" fill="#5EB7CC"/>
<path d="M16.8588 11.0367C16.8588 9.43034 17.7406 8.03124 19.0892 7.20213C18.8818 6.94304 18.6743 6.6321 18.4149 6.37301C17.0663 4.81843 14.6283 3.00476 10.6343 3.00476C10.4268 3.00476 10.1674 3.00478 10.0118 3.0566C9.80433 3.73025 9.8562 4.71481 9.95994 5.80301C10.1156 7.56486 10.2193 9.58581 9.18187 11.244C8.19632 12.7986 7.8851 14.0422 8.2482 14.8195C8.66317 15.5968 9.95994 16.0114 11.8273 16.0114C12.8647 16.0114 14.0059 15.8559 15.2508 15.5968C16.2363 15.3895 17.17 15.0786 17.9481 14.6641C18.1037 14.5604 18.2593 14.4568 18.363 14.3013C17.4294 13.524 16.8588 12.3322 16.8588 11.0367Z" fill="#E71C23"/>
<path d="M2.48828 12.7994L4.51125 13.7839C4.66686 13.0067 5.02996 12.1776 5.54867 11.2966L2.48828 12.7994Z" fill="#5EB7CC"/>
<path d="M2.12891 16.7377V33.3716C2.12891 33.7344 2.44013 34.2526 2.75136 34.408L6.38233 36.2735V18.8104L2.12891 16.7377Z" fill="#5EB7CC"/>
<path d="M0.363281 34.4583C0.363281 34.821 0.674509 35.3392 0.985735 35.4947L1.03761 35.5465C0.72638 35.2356 0.518894 34.821 0.363281 34.4065V34.4583Z" fill="#5EB7CC"/>
<path d="M20.1784 25.7016L10.0117 20.6752V38.19L20.8009 43.7865V25.9607C20.5934 25.9089 20.3859 25.8052 20.1784 25.7016Z" fill="#5EB7CC"/>
<path d="M24.9997 16.4775L24.2736 16.2184C23.9105 16.2703 23.5992 16.3221 23.2361 16.3221C22.8212 16.3221 22.4581 16.2703 22.095 16.1666L21.5763 16.3221C20.3832 17.4621 18.464 18.7058 15.7148 19.3276L22.8212 22.8513C22.9768 22.9549 23.288 23.0068 23.5474 23.0068C23.8067 23.0068 24.1179 22.9549 24.2736 22.8513L31.2243 19.3794C31.1205 19.3794 31.0168 19.3276 30.913 19.3276C28.112 18.8094 26.2446 17.5657 24.9997 16.4775Z" fill="#5EB7CC"/>
<path d="M24.4844 26.0639V44.7188L34.5992 39.4333V21.2448L24.4844 26.0639Z" fill="#5EB7CC"/>
<path d="M43.209 17.1528L38.2812 19.4847V37.5178L43.209 34.9786C43.209 34.9786 43.209 34.9787 43.209 34.9268V17.1528Z" fill="#5EB7CC"/>
<path d="M46.0096 11.3484L38.592 7.66923C38.4883 6.89194 38.592 6.01102 38.6958 5.18192C38.9032 3.7828 39.0588 2.33188 38.1252 1.24367C37.399 0.414566 36.1541 0 34.183 0C31.1745 0 28.944 0.880939 27.2323 2.02096L25.1056 0.932739C24.6387 0.725462 24.12 0.569998 23.4976 0.569998C22.927 0.569998 22.3564 0.673643 21.8896 0.932739L19.4516 2.12457C17.7917 0.932733 15.4576 0 12.2934 0C10.6854 0 9.54426 0.414547 8.7662 1.19183C7.62504 2.38368 7.78065 4.19735 7.88439 5.95921C7.93626 6.58104 7.98813 7.25469 7.98813 7.87652L1.03742 11.3484C0.414968 11.6593 0 12.1775 0 12.7993C0 13.0066 0.0518726 13.2139 0.155615 13.4212V33.3716C0.155615 33.7343 0.259353 34.0452 0.363095 34.4079C0.518708 34.8225 0.778065 35.1852 1.03742 35.5479C1.2449 35.807 1.50426 36.0143 1.81548 36.1698L21.8896 46.6373C22.3564 46.8964 22.927 47 23.4976 47C24.0681 47 24.6387 46.8964 25.1056 46.6373L45.1796 36.1698C46.1133 35.6516 46.8395 34.5116 46.8395 33.4234V13.473C46.9432 13.2657 46.9951 13.0584 46.9951 12.8511C47.047 12.1775 46.6839 11.6593 46.0096 11.3484ZM44.5572 12.7993L42.5861 13.7839L39.8888 15.1312C39.8888 15.1312 39.8888 15.1312 39.8888 15.0794C40.3038 14.3539 40.4594 13.5248 40.4075 12.6957C40.3556 11.9702 40.2 11.2448 39.8369 10.4675L44.5572 12.7993ZM36.6728 2.53915C37.0359 2.95371 36.9321 3.93826 36.7765 4.92282C36.569 6.42558 36.3097 8.29106 37.399 10.0011C37.7621 10.5711 38.0214 11.0893 38.2289 11.6075C38.3327 11.9184 38.3845 12.1775 38.4364 12.4366C38.5401 13.1103 38.4883 13.6803 38.2289 14.1985C37.8658 14.8203 37.1915 15.3385 36.2578 15.5976C35.5835 15.8048 34.8573 15.9085 33.9755 15.9085C33.1456 15.9085 32.2637 15.8048 31.3301 15.5976C29.2034 15.183 27.6472 14.2503 26.5061 13.2657C27.4398 12.4366 28.0103 11.2966 28.0103 9.94929C28.0103 8.34289 27.1285 6.94376 25.7799 6.11466C25.9874 5.85556 26.1948 5.54466 26.4542 5.28556C26.8173 4.87101 27.2841 4.45644 27.8029 4.04189C29.2552 2.90187 31.3301 1.91732 34.2348 1.91732C35.8428 1.96914 36.4134 2.28006 36.6728 2.53915ZM31.2263 19.4322L24.2756 22.9041C24.12 23.0077 23.8088 23.0595 23.5494 23.0595C23.2901 23.0595 22.9788 23.0077 22.8232 22.9041L15.7169 19.3804L12.8121 17.9294C13.6939 17.8776 14.6795 17.7222 15.7169 17.5149C18.5698 16.9449 20.489 15.6494 21.6821 14.5094L22.2008 14.3539C22.5639 14.4576 22.9788 14.5094 23.3419 14.5094C23.705 14.5094 24.0681 14.4575 24.3794 14.4057L25.1056 14.6648L25.1574 14.7167C26.3505 15.8049 28.2178 16.9967 30.967 17.5667C32.0044 17.774 33.0418 17.8776 33.9755 17.8776C34.0792 17.8776 34.2348 17.8776 34.3386 17.8776L34.4423 17.9294L31.2263 19.4322ZM21.0077 8.55016C21.5265 7.87651 22.3564 7.41014 23.2901 7.41014C23.9125 7.41014 24.4831 7.61741 24.9499 7.92833C25.5205 8.34288 25.9355 8.9647 26.0392 9.63835C26.0392 9.74199 26.0911 9.84565 26.0911 9.94929C26.0911 11.1929 25.1574 12.2293 23.9125 12.4366C23.705 12.4884 23.5494 12.4884 23.3419 12.4884C21.8377 12.4884 20.5928 11.3484 20.5928 9.94929C20.5409 9.4311 20.6965 8.96472 21.0077 8.55016ZM22.8232 2.6946C22.9788 2.59097 23.2901 2.53915 23.5494 2.53915C23.8088 2.53915 24.12 2.59097 24.2756 2.6946L25.6243 3.36825C25.3649 3.57552 25.1574 3.83461 24.9499 4.04189C24.535 4.50826 24.1719 5.02645 23.8607 5.49282C23.6532 5.49282 23.4976 5.44101 23.2901 5.44101C23.1863 5.44101 23.0307 5.44101 22.927 5.44101C22.8751 5.44101 22.7714 5.44101 22.7195 5.44101C22.4083 4.97464 22.0452 4.45646 21.6302 3.99008C21.5265 3.88644 21.4227 3.73098 21.319 3.62734C21.2671 3.57552 21.2152 3.52371 21.1634 3.47189L22.8232 2.6946ZM12.3972 1.96912C15.7688 1.96912 17.9992 3.26462 19.4516 4.61192C19.711 4.87102 19.9703 5.13009 20.1778 5.33737C20.4372 5.59646 20.6446 5.9074 20.8521 6.16649C20.8003 6.16649 20.8003 6.2183 20.7484 6.2183C19.4516 7.04741 18.6217 8.39471 18.6217 9.94929C18.6217 10.4675 18.7254 10.9338 18.881 11.4002C19.0885 12.0739 19.5035 12.6439 19.9703 13.1102C20.0222 13.1621 20.0741 13.2139 20.1259 13.2657C19.5554 13.7839 18.8292 14.3021 17.9474 14.7167C17.1693 15.0794 16.2875 15.4421 15.2501 15.6494C14.0052 15.9085 12.8121 16.0639 11.8266 16.0639C10.0111 16.0639 8.71433 15.5976 8.24749 14.8721C7.83252 14.0948 8.14374 12.8511 9.18116 11.2966C10.2705 9.63836 10.1148 7.61741 9.95923 5.85556C9.85548 4.81918 9.80362 3.7828 10.0111 3.10915C10.063 2.90187 10.1667 2.69461 10.3223 2.53915C10.6336 2.1246 11.3597 1.96912 12.3972 1.96912ZM6.17265 14.613L4.51277 13.7839L2.48981 12.7993L5.55019 11.2966L7.41755 10.3638C6.38013 11.9702 5.96516 13.4212 6.17265 14.613ZM8.09187 37.2062L6.38013 36.3252L2.74916 34.4598C2.43794 34.3043 2.12671 33.7861 2.12671 33.4234V16.7894V14.7685L8.14374 17.774V37.2062H8.09187ZM22.5639 44.7199L20.8521 43.839L10.063 38.2425V20.7277V18.7585L21.9414 24.6659C22.1489 24.7696 22.3564 24.8214 22.5639 24.8732V44.7199ZM36.3097 38.5535L34.5979 39.4344L24.4831 44.6681V26.0132V24.8214C24.6906 24.7696 24.8981 24.6659 25.1056 24.6141L36.3097 19.0176V38.5535ZM44.9203 33.3716C44.9203 33.7343 44.609 34.2525 44.2978 34.4079L43.2085 34.9779L38.2808 37.5171V19.484V18.0849L44.9721 14.7685V33.3716H44.9203Z" fill="#3C3C3C"/>
</svg>
